<?xml version="1.0" standalone="no"?>
<!DOCTYPE svg PUBLIC "-//W3C//DTD SVG 20010904//EN"
 "http://www.w3.org/TR/2001/REC-SVG-20010904/DTD/svg10.dtd">
<svg version="1.0" xmlns="http://www.w3.org/2000/svg"
 width="512.000000pt" height="512.000000pt" viewBox="0 0 512.000000 512.000000"
 preserveAspectRatio="xMidYMid meet">
<metadata>
Created by potrace 1.11, written by Peter Selinger 2001-2013
</metadata>
<g transform="translate(0.000000,512.000000) scale(0.100000,-0.100000)"
fill="#000000" stroke="none">
<path d="M0 2560 l0 -2560 2560 0 2560 0 0 2560 0 2560 -2560 0 -2560 0 0
-2560z m1744 2156 c10 -14 41 -67 68 -118 28 -51 121 -226 209 -389 87 -162
159 -301 159 -308 0 -7 -17 -43 -39 -79 -21 -37 -71 -125 -111 -197 -40 -71
-158 -283 -263 -470 -259 -462 -314 -559 -447 -798 -63 -113 -116 -202 -118
-198 -2 7 17 134 109 721 34 216 34 216 113 725 180 1154 170 1096 201 1123
36 31 90 25 119 -12z m870 -558 c13 -13 44 -61 69 -108 24 -47 73 -139 107
-205 35 -66 84 -159 109 -207 l46 -88 -898 -897 c-832 -832 -895 -893 -859
-828 22 39 91 162 154 275 186 331 757 1351 858 1530 51 91 137 245 192 343
55 97 109 184 121 192 31 22 72 18 101 -7z m1001 -260 c25 -22 29 -44 106
-518 43 -272 95 -589 113 -705 19 -115 58 -354 86 -530 28 -176 64 -394 79
-485 19 -113 24 -167 17 -171 -6 -4 -272 -152 -591 -329 -319 -178 -625 -348
-680 -379 l-100 -56 -90 0 c-82 0 -95 3 -145 31 -256 145 -432 244 -795 447
-541 303 -511 285 -506 294 2 4 545 551 1207 1216 1138 1141 1205 1207 1238
1207 22 0 45 -8 61 -22z"/>
</g>
</svg>
