<svg width="682" height="682" viewBox="0 0 682 682" fill="none" xmlns="http://www.w3.org/2000/svg">
<rect width="682" height="682" fill="black"/>
<mask id="mask0_74_120" style="mask-type:luminance" maskUnits="userSpaceOnUse" x="101" y="42" width="479" height="599">
<path d="M579.235 42.625H101.234V640.51H579.235V42.625Z" fill="white"/>
</mask>
<g mask="url(#mask0_74_120)">
<path d="M525.962 251.113C512.535 232.485 481.665 194.182 434.246 137.282C413.663 112.601 396.005 91.6523 387.313 81.3674C382.52 75.6941 378.409 70.84 375.162 67.0021L369.99 60.9041L367.183 57.5971L366.637 56.7932L366.395 56.687L354.426 42.625L339.257 54.7908C300.529 85.8122 268.81 125.798 247.558 170.366C234.527 196.882 226.017 222.807 221.557 249.504C220.389 255.512 219.388 261.685 218.554 267.875C213.351 267.45 208.057 267.177 202.808 267.055C202.368 267.025 201.928 267.01 201.337 266.995C182.117 266.327 163.004 268.618 144.543 273.821L136.64 276.036L132.574 283.165C113.521 316.583 102.736 354.627 101.386 393.174C99.6415 443.231 113.279 491.683 140.826 533.294C167.782 573.992 205.857 605.104 250.94 623.263L256.811 625.63L258.586 626.249L258.662 626.219C282.144 634.744 306.794 639.507 331.93 640.374C334.781 640.48 337.618 640.525 340.455 640.525C372.174 640.525 403.059 634.321 432.366 622.048L432.578 622.139L440.375 618.528C479.906 600.25 513.735 571.52 538.201 535.431C563.369 498.311 577.506 454.881 579.084 409.843C580.963 356.008 563.079 302.612 525.947 251.128L525.962 251.113ZM349.496 417.915C357.672 448.906 356.064 478.682 344.748 506.549C316.472 478.637 295.736 447.951 283.084 415.244C269.538 380.263 261.392 346.982 258.814 316.204C270.782 320.133 281.78 325.321 291.579 331.707C319.764 350.076 339.257 379.082 349.496 417.93V417.915ZM354.653 567.939C366.667 577.086 379.304 585.657 392.334 593.544C373.145 598.764 353.349 601.054 333.325 600.341C330.231 600.235 327.136 600.054 324.026 599.794C335.434 589.966 345.688 579.302 354.638 567.939H354.653ZM388.208 407.707C375.344 358.952 350.179 322.09 313.423 298.153C297.298 287.655 278.928 279.691 258.753 274.488C259.041 271.136 259.405 267.799 259.83 264.522C260.194 261.716 260.573 259.137 260.983 256.725C264.305 239.569 269.25 222.594 275.651 206.287C278.109 200.037 280.794 193.833 283.646 187.841L283.752 187.629C288.151 178.724 293.111 169.729 298.951 160.112L301.242 156.334L301.166 156.289C314.728 135.097 330.974 115.772 349.557 98.7363L356.731 107.216C373.463 127.042 389.194 145.792 403.5 162.948C435.672 201.539 477.389 252.22 493.484 274.564C525.309 318.677 540.646 363.715 539.081 408.465C537.869 443.216 527.585 477.105 509.32 506.443C492.027 534.249 467.939 557.519 439.556 573.901C423.72 565.999 400.723 552.998 376.3 534.083C395.99 494.838 400.01 452.348 388.223 407.707H388.208ZM324.057 542.167C306.005 565.557 284.525 580.773 271.996 588.419C269.963 587.676 267.93 586.902 265.928 586.083L264.32 585.445C227.2 570.108 195.891 544.185 173.774 510.447C151.172 475.969 139.977 435.89 141.418 394.54C142.45 364.896 149.837 336.577 163.398 310.349C171.271 308.604 179.296 307.512 187.32 307.103L189.399 307.057C193.449 306.966 197.484 306.966 201.322 307.057C206.965 307.315 212.623 307.906 218.19 308.802C220.01 346.483 229.264 387.136 245.722 429.671C261.574 470.614 287.908 508.432 324.042 542.152L324.057 542.167Z" fill="white"/>
</g>
</svg>
