<svg fill="none" height="682" viewBox="0 0 682 682" width="682" xmlns="http://www.w3.org/2000/svg"><path clip-rule="evenodd" d="m682 0h-682v682h682zm-246.991 136.657c47.419 56.9 78.289 95.203 91.716 113.831l-.015.015c37.131 51.484 55.016 104.88 53.136 158.715-1.577 45.038-15.714 88.468-40.882 125.588-24.467 36.089-58.295 64.819-97.827 83.097l-7.797 3.611-.211-.091c-29.308 12.273-60.192 18.477-91.912 18.477-2.836 0-5.673-.045-8.525-.151-25.135-.867-49.786-5.63-73.268-14.155l-.075.03-1.775-.619-5.871-2.367c-45.083-18.159-83.158-49.271-110.114-89.969-27.548-41.611-41.185-90.063-39.44-140.12 1.35-38.547 12.135-76.591 31.188-110.009l4.065-7.129 7.904-2.215c18.461-5.203 37.574-7.494 56.794-6.826.591.015 1.031.03 1.471.06 5.248.122 10.543.395 15.746.82.834-6.19 1.835-12.363 3.003-18.371 4.46-26.697 12.97-52.622 26.001-79.138 21.252-44.568 52.971-84.5538 91.698-115.5752l15.169-12.1658 11.969 14.062.243.1062.546.8039 2.806 3.307 5.173 6.098c.968 1.1449 2.014 2.3803 3.131 3.7008 2.629 3.1061 5.656 6.6836 9.02 10.6645 8.692 10.2849 26.349 31.2336 46.933 55.9146zm-89.498 369.267c11.316-27.867 12.924-57.643 4.748-88.634v.015c-10.24-38.848-29.733-67.854-57.917-86.223-9.799-6.386-20.797-11.574-32.766-15.503 2.579 30.778 10.725 64.059 24.271 99.04 12.651 32.707 33.388 63.393 61.664 91.305zm47.586 86.995c-13.031-7.887-25.667-16.458-37.681-25.605h-.015c-8.95 11.363-19.205 22.027-30.612 31.855 3.11.26 6.204.441 9.299.547 20.023.713 39.82-1.577 59.009-6.797zm-78.911-295.391c36.755 23.937 61.921 60.799 74.785 109.554h.015c11.786 44.641 7.766 87.131-11.923 126.376 24.422 18.915 47.42 31.916 63.255 39.818 28.383-16.382 52.472-39.652 69.764-67.458 18.266-29.338 28.55-63.227 29.761-97.978 1.566-44.75-13.771-89.788-45.596-133.901-16.096-22.344-57.812-73.025-89.985-111.616-14.305-17.156-30.036-35.906-46.768-55.732l-7.175-8.4797c-18.582 17.0357-34.829 36.3607-48.39 57.5527l.076.045-2.291 3.778c-5.84 9.617-10.8 18.612-15.2 27.517l-.106.212c-2.852 5.992-5.537 12.196-7.994 18.446-6.401 16.307-11.347 33.282-14.669 50.438-.409 2.412-.789 4.991-1.152 7.797-.425 3.277-.789 6.614-1.078 9.966 20.176 5.203 38.546 13.167 54.671 23.665zm-41.428 290.266c12.53-7.646 34.01-22.862 52.062-46.252l-.016-.015c-36.133-33.72-62.467-71.538-78.319-112.481-16.459-42.535-25.712-83.188-27.532-120.869-5.568-.896-11.226-1.487-16.869-1.745-3.838-.091-7.873-.091-11.923 0l-2.078.046c-8.024.409-16.049 1.501-23.922 3.246-13.561 26.228-20.949 54.547-21.981 84.191-1.44 41.35 9.754 81.429 32.357 115.907 22.117 33.738 53.426 59.661 90.546 74.998l1.607.638c2.003.819 4.035 1.593 6.068 2.336z" fill="#000" fill-rule="evenodd"/></svg>