<svg width="20" height="20" viewBox="0 0 20 20" xmlns="http://www.w3.org/2000/svg">
    <g fill-rule="nonzero" fill="none">
        <ellipse fill="#400090" cx="10" cy="10.055" rx="9.836" ry="9.927"/>
        <path d="M14.655 4.679c-.019 0-.055.018-.091.018-.091.019-.164.037-.255.055-.036 0-.073.019-.109.019-.09 0-.164.018-.255.018h-.109c-.09 0-.163 0-.254-.018-.055 0-.11-.019-.164-.019-.073-.018-.127-.018-.2-.036-.036 0-.073-.019-.109-.019-.673 1.23-3 5.028-3.109 5.248-.127-.22-2.436-4-3.11-5.248-.017 0-.054.019-.108.019-.073.018-.146.036-.218.036-.055 0-.11.019-.182.019-.055 0-.11 0-.182.018h-.11c-.308 0-.545-.037-.78-.11.09.147.18.293.308.477.164.238.473.734.837 1.376.29.496.763 1.303 1.09 1.89.328.587.673 1.193 1.019 1.78.418.734.672 1.192.745 1.32v.46c0 .605-.018 1.266-.036 1.853s-.055 2.202-.073 2.789c.236-.074.49-.11.764-.11h.109c.054 0 .127 0 .182.018.072 0 .145.018.218.037.054 0 .09.018.145.037.037.018.073.018.127.036-.018-.569-.054-2.202-.072-2.77a61.777 61.777 0 0 1-.037-1.854v-.458c.237-.44.491-.881.746-1.321.327-.588.673-1.193 1.018-1.78.327-.587.818-1.376 1.09-1.89.383-.642.674-1.12.837-1.376.146-.239.237-.367.328-.514z" fill="#FFF"/>
    </g>
</svg>
