<svg xmlns="http://www.w3.org/2000/svg" width="192" height="192" viewBox="13 8 171 176">
    <path fill="#097138" d="M170.8,86.12L37.39,10.3c-5.69-3.24-10.76-2.93-13.94,0.15l-0.01-0.01C21.28,12.52,20,15.9,20,20.33 v151.34c0,4.43,1.28,7.81,3.44,9.9l0.01-0.01c3.18,3.08,8.24,3.38,13.94,0.15l133.41-75.82 C180.36,100.45,180.36,91.55,170.8,86.12z" />
    <path fill="#00B359" d="M160.78,111.57c-1.98-11.56-4.68-27.34-6.63-38.7c-0.17-0.98-0.49-2.51-0.49-2.51h-1 c0,0,0.34,3.02,0.34,4.66c0,17.61-13.67,31.02-31.09,31.02H84l-9,9h44l12.79,13.01L160.78,111.57z"/>
    <path fill="#00E26B" d="M122.32,43.01H73.36c-15.7,0-28.49,9.79-31.93,29.87C38,92.94,32.2,126.82,32.2,126.82 c-0.13,0.74-0.19,1.45-0.19,2.23c0,7.16,5.71,12.95,12.75,12.95c3.52,0,6.71-1.39,9.02-3.74l30.82-31.21h37.73 c17.42,0,31.68-14.41,31.68-32.02C154,57.41,139.74,43.01,122.32,43.01z"/>
    <polygon fill="#FAFAFA" points="88,72 77,72 77,61 69,61 69,72 58,72 58,80 69,80 69,91 77,91 77,80 88,80"/>
    <circle fill="#FAFAFA" cx="122" cy="65" r="5"/>
    <circle fill="#FAFAFA" cx="122" cy="87" r="5"/>
    <circle fill="#FAFAFA" cx="133" cy="76" r="5"/>
    <circle fill="#FAFAFA" cx="111" cy="76" r="5"/>
</svg>
