<svg width="23" height="24" viewBox="0 0 23 24" fill="none" xmlns="http://www.w3.org/2000/svg">
    <path d="M20.5908 11.038C20.6367 11.4172 20.6827 11.7964 20.6827 12.1871C20.6827 14.5771 19.7635 16.7487 18.2697 18.3804C17.971 17.4497 17.1207 16.7832 16.0865 16.7832H14.9375V13.3361C14.9375 12.7041 14.4204 12.1871 13.7885 12.1871H6.89423V9.88899H9.1923C9.82427 9.88899 10.3413 9.37192 10.3413 8.73995V6.44187H12.6394C13.9034 6.44187 14.9375 5.40774 14.9375 4.1438V1.22524C13.8459 0.880529 12.6969 0.696683 11.4904 0.696683C5.14769 0.696683 0 5.84437 0 12.1871C0 18.5298 5.14769 23.6774 11.4904 23.6774C17.8331 23.6774 22.9808 18.5298 22.9808 12.1871C22.9808 11.7964 22.9578 11.4172 22.9233 11.038H20.5908ZM10.3413 21.2989C5.80264 20.7359 2.29808 16.8751 2.29808 12.1871C2.29808 11.4747 2.39 10.7967 2.53937 10.1303L8.04327 15.6342V16.7832C8.04327 18.0472 9.0774 19.0813 10.3413 19.0813V21.2989ZM22.119 3.56928V2.81091C22.119 1.5125 20.9355 0.409424 19.5336 0.409424C18.1318 0.409424 16.9483 1.5125 16.9483 2.81091V3.56928H16.0865V9.88899H22.9808V3.56928H22.119ZM20.3954 3.56928H18.6719V2.81091C18.6719 2.47769 19.1085 2.13298 19.5336 2.13298C19.9588 2.13298 20.3954 2.47769 20.3954 2.81091V3.56928Z" fill="#757575"/>
</svg>
