<svg width="24" height="24" viewBox="0 0 24 24" fill="none" xmlns="http://www.w3.org/2000/svg">
    <path fill-rule="evenodd" clip-rule="evenodd" d="M10.8 2.23067V22.608L14.4 20.9013V0.461334L10.8 2.23067Z" fill="#F8941C"/>
    <path fill-rule="evenodd" clip-rule="evenodd" d="M23.416 8.20801L23.916 13.4L16.9106 11.876" fill="#BCBEC0"/>
    <path fill-rule="evenodd" clip-rule="evenodd" d="M3.62669 14.8533C3.62669 12.4301 6.11634 10.369 9.60002 9.58975C9.60002 9.00001 9.60002 7.80001 9.60002 7.25013C4.08639 8.10257 0.00268555 11.1822 0.00268555 14.8533C0.00268555 18.8 4.72535 22.0667 10.8694 22.608V20.3373C6.73602 19.8173 3.62535 17.56 3.62535 14.852L3.62669 14.8533ZM15.6 9.54781C16.9233 9.82654 18.11 10.2874 19.0774 10.8867L21.6374 9.30401C20.0046 8.2929 17.9254 7.55876 15.6 7.22086C15.6 7.80002 15.6 9.00002 15.6 9.54781Z" fill="#BCBEC0"/>
</svg>
